<mxfile host="app.diagrams.net" modified="2024-05-07T08:35:33.383Z" agent="Mozilla/5.0 (X11; Linux x86_64; rv:125.0) Gecko/20100101 Firefox/125.0" etag="79J_Bl27xe7OPH4w72wF" version="24.3.1" type="github">
  <diagram name="Page-1" id="IpCxHiP5fQjlRUhZVsv_">
    <mxGraphModel dx="1434" dy="902" grid="1" gridSize="10" guides="1" tooltips="1" connect="1" arrows="1" fold="1" page="1" pageScale="1" pageWidth="1700" pageHeight="1100" math="0" shadow="0">
      <root>
        <mxCell id="0" />
        <mxCell id="1" parent="0" />
        <mxCell id="V7_XPnzY9b4O184bb2ig-13" style="edgeStyle=orthogonalEdgeStyle;rounded=0;orthogonalLoop=1;jettySize=auto;html=1;exitX=1;exitY=0.5;exitDx=0;exitDy=0;entryX=0;entryY=0.5;entryDx=0;entryDy=0;" edge="1" parent="1" source="V7_XPnzY9b4O184bb2ig-1" target="V7_XPnzY9b4O184bb2ig-6">
          <mxGeometry relative="1" as="geometry" />
        </mxCell>
        <mxCell id="V7_XPnzY9b4O184bb2ig-1" value="Instruction Fetch" style="rounded=1;whiteSpace=wrap;html=1;" vertex="1" parent="1">
          <mxGeometry x="280" y="360" width="80" height="80" as="geometry" />
        </mxCell>
        <mxCell id="V7_XPnzY9b4O184bb2ig-16" style="edgeStyle=orthogonalEdgeStyle;rounded=0;orthogonalLoop=1;jettySize=auto;html=1;exitX=1;exitY=0.5;exitDx=0;exitDy=0;entryX=0;entryY=0.5;entryDx=0;entryDy=0;" edge="1" parent="1" source="V7_XPnzY9b4O184bb2ig-2" target="V7_XPnzY9b4O184bb2ig-10">
          <mxGeometry relative="1" as="geometry" />
        </mxCell>
        <mxCell id="V7_XPnzY9b4O184bb2ig-2" value="Instruction Decode" style="rounded=1;whiteSpace=wrap;html=1;" vertex="1" parent="1">
          <mxGeometry x="480" y="360" width="80" height="80" as="geometry" />
        </mxCell>
        <mxCell id="V7_XPnzY9b4O184bb2ig-4" value="Memory" style="rounded=1;whiteSpace=wrap;html=1;" vertex="1" parent="1">
          <mxGeometry x="880" y="360" width="80" height="80" as="geometry" />
        </mxCell>
        <mxCell id="V7_XPnzY9b4O184bb2ig-23" style="edgeStyle=orthogonalEdgeStyle;rounded=0;orthogonalLoop=1;jettySize=auto;html=1;exitX=1;exitY=0.5;exitDx=0;exitDy=0;entryX=0.5;entryY=1;entryDx=0;entryDy=0;" edge="1" parent="1" source="V7_XPnzY9b4O184bb2ig-5" target="V7_XPnzY9b4O184bb2ig-2">
          <mxGeometry relative="1" as="geometry">
            <Array as="points">
              <mxPoint x="1180" y="400" />
              <mxPoint x="1180" y="500" />
              <mxPoint x="520" y="500" />
            </Array>
          </mxGeometry>
        </mxCell>
        <mxCell id="V7_XPnzY9b4O184bb2ig-5" value="Write Back" style="rounded=1;whiteSpace=wrap;html=1;" vertex="1" parent="1">
          <mxGeometry x="1080" y="360" width="80" height="80" as="geometry" />
        </mxCell>
        <mxCell id="V7_XPnzY9b4O184bb2ig-14" style="edgeStyle=orthogonalEdgeStyle;rounded=0;orthogonalLoop=1;jettySize=auto;html=1;exitX=1;exitY=0.5;exitDx=0;exitDy=0;entryX=0;entryY=0.5;entryDx=0;entryDy=0;" edge="1" parent="1" source="V7_XPnzY9b4O184bb2ig-6" target="V7_XPnzY9b4O184bb2ig-2">
          <mxGeometry relative="1" as="geometry" />
        </mxCell>
        <mxCell id="V7_XPnzY9b4O184bb2ig-6" value="IF/ID" style="rounded=0;whiteSpace=wrap;html=1;" vertex="1" parent="1">
          <mxGeometry x="400" y="320" width="40" height="160" as="geometry" />
        </mxCell>
        <mxCell id="V7_XPnzY9b4O184bb2ig-9" value="Execution" style="rounded=1;whiteSpace=wrap;html=1;" vertex="1" parent="1">
          <mxGeometry x="680" y="360" width="80" height="80" as="geometry" />
        </mxCell>
        <mxCell id="V7_XPnzY9b4O184bb2ig-17" style="edgeStyle=orthogonalEdgeStyle;rounded=0;orthogonalLoop=1;jettySize=auto;html=1;exitX=1;exitY=0.5;exitDx=0;exitDy=0;entryX=0;entryY=0.5;entryDx=0;entryDy=0;" edge="1" parent="1" source="V7_XPnzY9b4O184bb2ig-10" target="V7_XPnzY9b4O184bb2ig-9">
          <mxGeometry relative="1" as="geometry" />
        </mxCell>
        <mxCell id="V7_XPnzY9b4O184bb2ig-10" value="ID/EX" style="rounded=0;whiteSpace=wrap;html=1;" vertex="1" parent="1">
          <mxGeometry x="600" y="320" width="40" height="160" as="geometry" />
        </mxCell>
        <mxCell id="V7_XPnzY9b4O184bb2ig-11" value="EX/MEM" style="rounded=0;whiteSpace=wrap;html=1;" vertex="1" parent="1">
          <mxGeometry x="800" y="320" width="40" height="160" as="geometry" />
        </mxCell>
        <mxCell id="V7_XPnzY9b4O184bb2ig-12" value="MEM/WB" style="rounded=0;whiteSpace=wrap;html=1;" vertex="1" parent="1">
          <mxGeometry x="1000" y="320" width="40" height="160" as="geometry" />
        </mxCell>
        <mxCell id="V7_XPnzY9b4O184bb2ig-18" style="edgeStyle=orthogonalEdgeStyle;rounded=0;orthogonalLoop=1;jettySize=auto;html=1;exitX=1;exitY=0.5;exitDx=0;exitDy=0;" edge="1" parent="1" source="V7_XPnzY9b4O184bb2ig-9">
          <mxGeometry relative="1" as="geometry">
            <mxPoint x="800" y="400" as="targetPoint" />
          </mxGeometry>
        </mxCell>
        <mxCell id="V7_XPnzY9b4O184bb2ig-19" style="edgeStyle=orthogonalEdgeStyle;rounded=0;orthogonalLoop=1;jettySize=auto;html=1;exitX=1;exitY=0.5;exitDx=0;exitDy=0;entryX=-0.007;entryY=0.493;entryDx=0;entryDy=0;entryPerimeter=0;" edge="1" parent="1" source="V7_XPnzY9b4O184bb2ig-11" target="V7_XPnzY9b4O184bb2ig-4">
          <mxGeometry relative="1" as="geometry" />
        </mxCell>
        <mxCell id="V7_XPnzY9b4O184bb2ig-20" style="edgeStyle=orthogonalEdgeStyle;rounded=0;orthogonalLoop=1;jettySize=auto;html=1;exitX=1;exitY=0.5;exitDx=0;exitDy=0;entryX=-0.008;entryY=0.503;entryDx=0;entryDy=0;entryPerimeter=0;" edge="1" parent="1" source="V7_XPnzY9b4O184bb2ig-4" target="V7_XPnzY9b4O184bb2ig-12">
          <mxGeometry relative="1" as="geometry" />
        </mxCell>
        <mxCell id="V7_XPnzY9b4O184bb2ig-21" style="edgeStyle=orthogonalEdgeStyle;rounded=0;orthogonalLoop=1;jettySize=auto;html=1;exitX=1;exitY=0.5;exitDx=0;exitDy=0;entryX=-0.007;entryY=0.498;entryDx=0;entryDy=0;entryPerimeter=0;" edge="1" parent="1" source="V7_XPnzY9b4O184bb2ig-12" target="V7_XPnzY9b4O184bb2ig-5">
          <mxGeometry relative="1" as="geometry" />
        </mxCell>
      </root>
    </mxGraphModel>
  </diagram>
</mxfile>
